<svg xmlns="http://www.w3.org/2000/svg" viewBox="0 0 157.66 19.664"><g stroke-width=".265" style="line-height:125%;text-align:start" font-family="Graphik Bold" font-size="9.988" font-weight="700" letter-spacing="0" word-spacing="0"><path fill="#0f2d5e" d="M0 9.153v-3.1h1.674V4.886q0-2.419 1.39-3.647Q4.451 0 6.883 0 7.8 0 8.966.285V3.61q-.583-.174-1.253-.174-.769 0-1.153.385-.372.384-.372 1.067v1.165H8.88v3.1H6.19v10.183H1.674V9.153zM12.043 2.443q0-1.017.707-1.686.72-.67 1.786-.67 1.079 0 1.798.67.72.67.72 1.686 0 1.005-.72 1.675-.72.657-1.798.657-1.08 0-1.786-.657-.707-.67-.707-1.675zm.236 16.892V6.052h4.539v13.283zM20.559 19.335V6.052h4.54v2.134q.57-1.117 1.686-1.799 1.116-.694 2.679-.694 1.997 0 3.175 1.277 1.178 1.265 1.178 3.733v8.632h-4.552V11.61q0-1.129-.47-1.675-.46-.558-1.44-.558-1.041 0-1.649.645-.608.633-.608 1.873v7.441zM36.994 19.335V6.052h4.54v2.134q.57-1.117 1.686-1.799 1.116-.694 2.679-.694 1.997 0 3.175 1.277 1.178 1.265 1.178 3.733v8.632H45.7V11.61q0-1.129-.47-1.675-.46-.558-1.44-.558-1.041 0-1.649.645-.608.633-.608 1.873v7.441zM53.558 19.335V.211h4.54v11.1l3.583-5.259h4.726l-4.341 5.966 4.7 7.317h-5.085l-3.584-5.816v5.816zM67.297 12.851v-.21q0-2.084.967-3.684t2.617-2.43q1.65-.844 3.708-.844 2.047 0 3.684.818 1.637.819 2.592 2.394.967 1.563.967 3.621v.211q0 1.588-.558 2.902-.558 1.303-1.538 2.183-.98.868-2.307 1.352-1.327.471-2.865.471-2.058 0-3.696-.78-1.637-.795-2.604-2.345-.967-1.563-.967-3.659zm4.65-.124q0 1.724.67 2.63.67.893 1.972.893 1.265 0 1.935-.906.682-.905.682-2.567v-.21q0-1.688-.67-2.58-.657-.894-1.947-.894-1.277 0-1.96.881-.682.868-.682 2.542zM83.938 12.827v-.211q0-1.662.434-2.99.447-1.326 1.203-2.182.77-.856 1.786-1.302 1.03-.46 2.22-.46 2.84 0 4.093 2.233V.201h4.54v19.124h-4.54v-2.158q-.52 1.092-1.612 1.786-1.08.682-2.53.682-1.179 0-2.183-.421-.992-.422-1.761-1.24-.77-.831-1.216-2.146-.434-1.327-.434-3.001zm4.626-.05q0 1.65.682 2.518.683.855 1.886.855 1.265 0 1.96-.868.706-.868.706-2.53v-.21q0-1.663-.682-2.543-.67-.88-1.935-.88-2.617 0-2.617 3.447zM100.906 12.851v-.21q0-2.084.955-3.684.968-1.6 2.592-2.43 1.638-.844 3.647-.844 1.401 0 2.592.41 1.203.408 2.145 1.227.943.806 1.476 2.145.546 1.34.546 3.076v1.19h-9.351q.099 1.316.818 2.047.732.732 1.947.732 1.997 0 2.307-1.575h4.28q-.311 2.27-2.035 3.485-1.711 1.215-4.7 1.215-3.213 0-5.222-1.798-1.997-1.81-1.997-4.986zm4.651-1.674h4.874q-.062-1.215-.657-1.848-.583-.645-1.674-.645-1.042 0-1.712.657-.67.645-.83 1.836z" font-size="medium" style="line-height:1.25;-inkscape-font-specification:'Graphik Bold, Bold';font-variant-ligatures:normal;font-variant-caps:normal;font-variant-numeric:normal;font-feature-settings:normal;text-align:start"/><path fill="#99eeb2" d="M118.988 14.85q-.793-.782-.793-1.935t.793-1.947q.806-.794 1.997-.794 1.216 0 2.034.794.819.794.819 1.947t-.819 1.935q-.818.781-2.034.781-1.19 0-1.997-.781z" font-family="Graphik" font-size="25.4" font-weight="900" style="line-height:1.25;-inkscape-font-specification:'Graphik, Heavy';font-variant-ligatures:normal;font-variant-caps:normal;font-variant-numeric:normal;font-feature-settings:normal;text-align:start"/><path fill="#0f2d5e" d="M127.59 19.335V6.052h4.54v2.134q.57-1.117 1.686-1.799 1.116-.694 2.679-.694 1.997 0 3.175 1.277 1.178 1.265 1.178 3.733v8.632h-4.552V11.61q0-1.129-.47-1.675-.46-.558-1.44-.558-1.041 0-1.649.645-.608.633-.608 1.873v7.441zM143.124 12.88v-.21q0-2.084.968-3.684.967-1.6 2.616-2.43 1.65-.844 3.709-.844 2.046 0 3.683.818 1.637.819 2.592 2.394.968 1.563.968 3.621v.211q0 1.588-.558 2.902-.558 1.303-1.538 2.183-.98.868-2.307 1.352-1.327.471-2.865.471-2.059 0-3.696-.78-1.637-.795-2.604-2.345-.968-1.563-.968-3.659zm4.651-.124q0 1.724.67 2.63.67.893 1.972.893 1.265 0 1.935-.906.682-.905.682-2.567v-.21q0-1.688-.67-2.58-.657-.894-1.947-.894-1.278 0-1.96.881-.682.868-.682 2.542z" font-size="medium" style="line-height:1.25;-inkscape-font-specification:'Graphik Bold, Bold';font-variant-ligatures:normal;font-variant-caps:normal;font-variant-numeric:normal;font-feature-settings:normal;text-align:start"/></g></svg>