<!-- circles <svg xmlns="http://www.w3.org/2000/svg" viewBox="0 0 640 512"><path fill="#0F2D5E" d="M576 192c35.3 0 64-28.7 64-64s-28.7-64-64-64-64 28.7-64 64 28.7 64 64 64zM64 240c-35.3 0-64 28.7-64 64s28.7 64 64 64 64-28.7 64-64-28.7-64-64-64zm449.6-37.2l-19.2-25.6-48 36 19.2 25.6 48-36zM576 384c-14.4 0-27.6 5-38.3 13l-96-57.6c3.8-11.2 6.3-23 6.3-35.5 0-61.9-50.1-112-112-112-8.4 0-16.6 1.1-24.4 2.9l-40.8-87.4C281.4 96 288 80.8 288 64c0-35.3-28.7-64-64-64s-64 28.7-64 64 28.7 64 64 64c1.1 0 2.1-.3 3.2-.3l41 87.8C241.5 235.9 224 267.8 224 304c0 61.9 50.1 112 112 112 32.1 0 60.8-13.7 81.2-35.3l95.8 57.5c-.5 3.2-1 6.5-1 9.8 0 35.3 28.7 64 64 64s64-28.7 64-64-28.7-64-64-64zm-240-32c-26.5 0-48-21.5-48-48s21.5-48 48-48 48 21.5 48 48-21.5 48-48 48zm-184-32h48v-32h-48v32z"></path></svg>-->


<!-- FA Random <svg xmlns="http://www.w3.org/2000/svg" viewBox="0 0 512 512"><path fill="#0F2D5E" d="M505 400l-79.2 72.9c-15.1 15.1-41.8 4.4-41.8-17v-40h-31c-3.3 0-6.5-1.4-8.8-3.9l-89.8-97.2 38.1-41.3 79.8 86.3H384v-48c0-21.4 26.7-32.1 41.8-17l79.2 71c9.3 9.6 9.3 24.8 0 34.2zM12 152h91.8l79.8 86.3 38.1-41.3-89.8-97.2c-2.3-2.5-5.5-3.9-8.8-3.9H12c-6.6 0-12 5.4-12 12v32c0 6.7 5.4 12.1 12 12.1zm493-41.9l-79.2-71C410.7 24 384 34.7 384 56v40h-31c-3.3 0-6.5 1.4-8.8 3.9L103.8 360H12c-6.6 0-12 5.4-12 12v32c0 6.6 5.4 12 12 12h111c3.3 0 6.5-1.4 8.8-3.9L372.2 152H384v48c0 21.4 26.7 32.1 41.8 17l79.2-73c9.3-9.4 9.3-24.6 0-33.9z"></path></svg>-->

<!-- FA Exchange -->
<svg xmlns="http://www.w3.org/2000/svg" viewBox="0 0 512 512"><path fill="#0F2D5E" d="M0 168v-16c0-13.255 10.745-24 24-24h381.97l-30.467-27.728c-9.815-9.289-10.03-24.846-.474-34.402l10.84-10.84c9.373-9.373 24.568-9.373 33.941 0l82.817 82.343c12.497 12.497 12.497 32.758 0 45.255l-82.817 82.343c-9.373 9.373-24.569 9.373-33.941 0l-10.84-10.84c-9.556-9.556-9.341-25.114.474-34.402L405.97 192H24c-13.255 0-24-10.745-24-24zm488 152H106.03l30.467-27.728c9.815-9.289 10.03-24.846.474-34.402l-10.84-10.84c-9.373-9.373-24.568-9.373-33.941 0L9.373 329.373c-12.497 12.497-12.497 32.758 0 45.255l82.817 82.343c9.373 9.373 24.569 9.373 33.941 0l10.84-10.84c9.556-9.556 9.341-25.113-.474-34.402L106.03 384H488c13.255 0 24-10.745 24-24v-16c0-13.255-10.745-24-24-24z"></path></svg>