<?xml version="1.0" encoding="UTF-8" standalone="no"?>
<svg
   xmlns:dc="http://purl.org/dc/elements/1.1/"
   xmlns:cc="http://creativecommons.org/ns#"
   xmlns:rdf="http://www.w3.org/1999/02/22-rdf-syntax-ns#"
   xmlns:svg="http://www.w3.org/2000/svg"
   xmlns="http://www.w3.org/2000/svg"
   xmlns:sodipodi="http://sodipodi.sourceforge.net/DTD/sodipodi-0.dtd"
   xmlns:inkscape="http://www.inkscape.org/namespaces/inkscape"
   width="157.65973mm"
   height="19.664421mm"
   viewBox="0 0 157.65973 19.664421"
   version="1.1"
   id="svg8"
   sodipodi:docname="logo.svg"
   inkscape:version="0.92.3 (2405546, 2018-03-11)">
  <sodipodi:namedview
     pagecolor="#ffffff"
     bordercolor="#666666"
     borderopacity="1"
     objecttolerance="10"
     gridtolerance="10"
     guidetolerance="10"
     inkscape:pageopacity="0"
     inkscape:pageshadow="2"
     inkscape:window-width="1920"
     inkscape:window-height="1137"
     id="namedview22"
     showgrid="false"
     fit-margin-top="0"
     fit-margin-left="0"
     fit-margin-right="0"
     fit-margin-bottom="0"
     inkscape:zoom="0.52501402"
     inkscape:cx="33.332443"
     inkscape:cy="37.161115"
     inkscape:window-x="-8"
     inkscape:window-y="296"
     inkscape:window-maximized="1"
     inkscape:current-layer="text122" />
  <defs
     id="defs2" />
  <metadata
     id="metadata5">
    <rdf:RDF>
      <cc:Work
         rdf:about="">
        <dc:format>image/svg+xml</dc:format>
        <dc:type
           rdf:resource="http://purl.org/dc/dcmitype/StillImage" />
        <dc:title></dc:title>
      </cc:Work>
    </rdf:RDF>
  </metadata>
  <g
     id="layer1"
     transform="translate(-33.31,-198.25658)">
    <g
       aria-label="finnkode·no "
       style="font-style:normal;font-variant:normal;font-weight:700;font-size:9.9880209px;line-height:125%;font-family:'Graphik Bold';text-align:start;letter-spacing:0px;word-spacing:0px;text-anchor:start;fill:#000000;fill-opacity:1;stroke:none;stroke-width:0.26458332"
       id="text122">
      <path
         id="path198-8"
         style="font-style:normal;font-variant:normal;font-weight:bold;font-stretch:normal;font-size:medium;line-height:1.25;font-family:'Graphik Bold';-inkscape-font-specification:'Graphik Bold, Bold';font-variant-ligatures:normal;font-variant-caps:normal;font-variant-numeric:normal;font-feature-settings:normal;text-align:start;letter-spacing:0px;word-spacing:0px;writing-mode:lr-tb;text-anchor:start;fill:#0f2d5e;fill-opacity:1;stroke:none;stroke-width:0.07000434"
         d="m 33.31,207.40951 v -3.10059 h 1.674316 v -1.16582 q 0,-2.41846 1.389063,-3.64629 1.389062,-1.24023 3.819926,-1.24023 0.91777,0 2.08359,0.28525 v 3.32383 q -0.58291,-0.17363 -1.25264,-0.17363 -0.76894,0 -1.15341,0.38447 -0.37208,0.38447 -0.37208,1.0666 v 1.16582 h 2.69131 v 3.10059 h -2.69131 v 10.18232 h -4.514449 v -10.18232 z"
         inkscape:connector-curvature="0" />
      <path
         id="path200-7"
         style="font-style:normal;font-variant:normal;font-weight:bold;font-stretch:normal;font-size:medium;line-height:1.25;font-family:'Graphik Bold';-inkscape-font-specification:'Graphik Bold, Bold';font-variant-ligatures:normal;font-variant-caps:normal;font-variant-numeric:normal;font-feature-settings:normal;text-align:start;letter-spacing:0px;word-spacing:0px;writing-mode:lr-tb;text-anchor:start;fill:#0f2d5e;fill-opacity:1;stroke:none;stroke-width:0.07000434"
         d="m 45.353057,200.69984 q 0,-1.01699 0.70694,-1.68672 0.71933,-0.66973 1.78593,-0.66973 1.07901,0 1.79834,0.66973 0.71934,0.66973 0.71934,1.68672 0,1.00459 -0.71934,1.67432 -0.71933,0.65732 -1.79834,0.65732 -1.079,0 -1.78593,-0.65732 -0.70694,-0.66973 -0.70694,-1.67432 z m 0.23565,16.89199 v -13.28291 h 4.53926 v 13.28291 z"
         inkscape:connector-curvature="0" />
      <path
         id="path202-6"
         style="font-style:normal;font-variant:normal;font-weight:bold;font-stretch:normal;font-size:medium;line-height:1.25;font-family:'Graphik Bold';-inkscape-font-specification:'Graphik Bold, Bold';font-variant-ligatures:normal;font-variant-caps:normal;font-variant-numeric:normal;font-feature-settings:normal;text-align:start;letter-spacing:0px;word-spacing:0px;writing-mode:lr-tb;text-anchor:start;fill:#0f2d5e;fill-opacity:1;stroke:none;stroke-width:0.07000434"
         d="m 53.869,217.59183 v -13.28291 h 4.53926 v 2.1332 q 0.57051,-1.11621 1.68672,-1.79834 1.11621,-0.69453 2.6789,-0.69453 1.99678,0 3.175,1.27744 1.17823,1.26504 1.17823,3.73311 v 8.63203 h -4.55166 v -7.72666 q 0,-1.12861 -0.47129,-1.67432 -0.45889,-0.5581 -1.43867,-0.5581 -1.0418,0 -1.64952,0.64492 -0.60771,0.63252 -0.60771,1.87275 v 7.44141 z"
         inkscape:connector-curvature="0" />
      <path
         id="path204-1"
         style="font-style:normal;font-variant:normal;font-weight:bold;font-stretch:normal;font-size:medium;line-height:1.25;font-family:'Graphik Bold';-inkscape-font-specification:'Graphik Bold, Bold';font-variant-ligatures:normal;font-variant-caps:normal;font-variant-numeric:normal;font-feature-settings:normal;text-align:start;letter-spacing:0px;word-spacing:0px;writing-mode:lr-tb;text-anchor:start;fill:#0f2d5e;fill-opacity:1;stroke:none;stroke-width:0.07000434"
         d="m 70.304007,217.59183 v -13.28291 h 4.53926 v 2.1332 q 0.57051,-1.11621 1.68672,-1.79834 1.11621,-0.69453 2.67891,-0.69453 1.99677,0 3.175,1.27744 1.17822,1.26504 1.17822,3.73311 v 8.63203 h -4.55166 v -7.72666 q 0,-1.12861 -0.47129,-1.67432 -0.45889,-0.5581 -1.43867,-0.5581 -1.0418,0 -1.64951,0.64492 -0.60772,0.63252 -0.60772,1.87275 v 7.44141 z"
         inkscape:connector-curvature="0" />
      <path
         id="path206-8"
         style="font-style:normal;font-variant:normal;font-weight:bold;font-stretch:normal;font-size:medium;line-height:1.25;font-family:'Graphik Bold';-inkscape-font-specification:'Graphik Bold, Bold';font-variant-ligatures:normal;font-variant-caps:normal;font-variant-numeric:normal;font-feature-settings:normal;text-align:start;letter-spacing:0px;word-spacing:0px;writing-mode:lr-tb;text-anchor:start;fill:#0f2d5e;fill-opacity:1;stroke:none;stroke-width:0.07000434"
         d="m 86.867927,217.59183 v -19.12441 h 4.53925 v 11.10009 l 3.58428,-5.25859 h 4.725266 l -4.340796,5.96553 4.700463,7.31738 h -5.084933 l -3.58428,-5.8167 v 5.8167 z"
         inkscape:connector-curvature="0" />
      <path
         id="path208-0"
         style="font-style:normal;font-variant:normal;font-weight:bold;font-stretch:normal;font-size:medium;line-height:1.25;font-family:'Graphik Bold';-inkscape-font-specification:'Graphik Bold, Bold';font-variant-ligatures:normal;font-variant-caps:normal;font-variant-numeric:normal;font-feature-settings:normal;text-align:start;letter-spacing:0px;word-spacing:0px;writing-mode:lr-tb;text-anchor:start;fill:#0f2d5e;fill-opacity:1;stroke:none;stroke-width:0.07000434"
         d="m 100.60659,211.10792 v -0.21084 q 0,-2.0836 0.96739,-3.6835 0.96738,-1.5999 2.61689,-2.43086 1.64951,-0.84336 3.7083,-0.84336 2.04639,0 3.6835,0.81856 1.63711,0.81855 2.59209,2.39365 0.96738,1.5627 0.96738,3.62148 v 0.21084 q 0,1.5875 -0.55811,2.90215 -0.5581,1.30225 -1.53789,2.18281 -0.97978,0.86817 -2.30683,1.35186 -1.32705,0.47129 -2.86494,0.47129 -2.05879,0 -3.6959,-0.78135 -1.63711,-0.79375 -2.60449,-2.34404 -0.96739,-1.5627 -0.96739,-3.65869 z m 4.65088,-0.12403 q 0,1.72393 0.66973,2.6293 0.66972,0.89297 1.97197,0.89297 1.26504,0 1.93477,-0.90537 0.68212,-0.90537 0.68212,-2.56729 v -0.21084 q 0,-1.68672 -0.66972,-2.57968 -0.65733,-0.89297 -1.94717,-0.89297 -1.27744,0 -1.95957,0.88056 -0.68213,0.86817 -0.68213,2.54248 z"
         inkscape:connector-curvature="0" />
      <path
         id="path210-5"
         style="font-style:normal;font-variant:normal;font-weight:bold;font-stretch:normal;font-size:medium;line-height:1.25;font-family:'Graphik Bold';-inkscape-font-specification:'Graphik Bold, Bold';font-variant-ligatures:normal;font-variant-caps:normal;font-variant-numeric:normal;font-feature-settings:normal;text-align:start;letter-spacing:0px;word-spacing:0px;writing-mode:lr-tb;text-anchor:start;fill:#0f2d5e;fill-opacity:1;stroke:none;stroke-width:0.07000434"
         d="m 117.24825,211.08311 v -0.21084 q 0,-1.66191 0.43408,-2.98896 0.44648,-1.32705 1.20302,-2.18281 0.76895,-0.85577 1.78594,-1.30225 1.0294,-0.45889 2.22002,-0.45889 2.84014,0 4.09278,2.23242 v -7.71425 h 4.53925 v 19.12441 h -4.53925 v -2.15801 q -0.5209,1.09141 -1.61231,1.78594 -1.079,0.68213 -2.53008,0.68213 -1.17822,0 -2.18281,-0.42168 -0.99219,-0.42168 -1.76113,-1.24023 -0.76895,-0.83096 -1.21543,-2.14561 -0.43408,-1.32705 -0.43408,-3.00137 z m 4.62607,-0.0496 q 0,1.64952 0.68213,2.51768 0.68213,0.85576 1.88515,0.85576 1.26504,0 1.95957,-0.86816 0.70694,-0.86817 0.70694,-2.53008 v -0.21084 q 0,-1.66192 -0.68213,-2.54248 -0.66973,-0.88057 -1.93477,-0.88057 -2.61689,0 -2.61689,3.44785 z"
         inkscape:connector-curvature="0" />
      <path
         id="path212-9"
         style="font-style:normal;font-variant:normal;font-weight:bold;font-stretch:normal;font-size:medium;line-height:1.25;font-family:'Graphik Bold';-inkscape-font-specification:'Graphik Bold, Bold';font-variant-ligatures:normal;font-variant-caps:normal;font-variant-numeric:normal;font-feature-settings:normal;text-align:start;letter-spacing:0px;word-spacing:0px;writing-mode:lr-tb;text-anchor:start;fill:#0f2d5e;fill-opacity:1;stroke:none;stroke-width:0.07000434"
         d="m 134.21642,211.10792 v -0.21084 q 0,-2.0836 0.95498,-3.6835 0.96738,-1.5999 2.59209,-2.43086 1.63711,-0.84336 3.64629,-0.84336 1.40146,0 2.59208,0.40928 1.20303,0.40928 2.14561,1.22783 0.94258,0.80615 1.47588,2.14561 0.5457,1.33945 0.5457,3.07578 v 1.19062 h -9.35136 q 0.0992,1.31465 0.81855,2.04639 0.73174,0.73174 1.94717,0.73174 1.99678,0 2.30683,-1.5751 h 4.27881 q -0.31006,2.26963 -2.03398,3.48506 -1.71153,1.21543 -4.70049,1.21543 -3.21221,0 -5.22139,-1.79834 -1.99677,-1.81074 -1.99677,-4.98574 z m 4.65087,-1.67432 h 4.87413 q -0.062,-1.21543 -0.65733,-1.84795 -0.58291,-0.64492 -1.67431,-0.64492 -1.0418,0 -1.71153,0.65732 -0.66972,0.64493 -0.83096,1.83555 z"
         inkscape:connector-curvature="0" />
      <path
         id="path214-8"
         style="font-style:normal;font-variant:normal;font-weight:900;font-stretch:normal;font-size:25.39999962px;line-height:1.25;font-family:Graphik;-inkscape-font-specification:'Graphik, Heavy';font-variant-ligatures:normal;font-variant-caps:normal;font-variant-numeric:normal;font-feature-settings:normal;text-align:start;letter-spacing:0px;word-spacing:0px;writing-mode:lr-tb;text-anchor:start;fill:#99eeb2;fill-opacity:1;stroke:none;stroke-width:0.07000434"
         d="m 152.29834,213.10629 q -0.79375,-0.78135 -0.79375,-1.93476 0,-1.15342 0.79375,-1.94717 0.80616,-0.79375 1.99678,-0.79375 1.21543,0 2.03399,0.79375 0.81855,0.79375 0.81855,1.94717 0,1.15341 -0.81855,1.93476 -0.81856,0.78135 -2.03399,0.78135 -1.19062,0 -1.99678,-0.78135 z"
         inkscape:connector-curvature="0" />
      <path
         id="path216-7"
         style="font-style:normal;font-variant:normal;font-weight:bold;font-stretch:normal;font-size:medium;line-height:1.25;font-family:'Graphik Bold';-inkscape-font-specification:'Graphik Bold, Bold';font-variant-ligatures:normal;font-variant-caps:normal;font-variant-numeric:normal;font-feature-settings:normal;text-align:start;letter-spacing:0px;word-spacing:0px;writing-mode:lr-tb;text-anchor:start;fill:#0f2d5e;fill-opacity:1;stroke:none;stroke-width:0.07000434"
         d="m 160.90002,217.59183 v -13.28291 h 4.53926 v 2.1332 q 0.57051,-1.11621 1.68672,-1.79834 1.11621,-0.69453 2.6789,-0.69453 1.99678,0 3.175,1.27744 1.17823,1.26504 1.17823,3.73311 v 8.63203 h -4.55166 v -7.72666 q 0,-1.12861 -0.47129,-1.67432 -0.45889,-0.5581 -1.43868,-0.5581 -1.04179,0 -1.64951,0.64492 -0.60771,0.63252 -0.60771,1.87275 v 7.44141 z"
         inkscape:connector-curvature="0" />
      <path
         id="path218-0"
         style="font-style:normal;font-variant:normal;font-weight:bold;font-stretch:normal;font-size:medium;line-height:1.25;font-family:'Graphik Bold';-inkscape-font-specification:'Graphik Bold, Bold';font-variant-ligatures:normal;font-variant-caps:normal;font-variant-numeric:normal;font-feature-settings:normal;text-align:start;letter-spacing:0px;word-spacing:0px;writing-mode:lr-tb;text-anchor:start;fill:#0f2d5e;fill-opacity:1;stroke:none;stroke-width:0.07000434"
         d="m 176.43419,211.13692 v -0.21084 q 0,-2.0836 0.96738,-3.6835 0.96738,-1.5999 2.6169,-2.43086 1.64951,-0.84336 3.7083,-0.84336 2.04638,0 3.68349,0.81856 1.63711,0.81855 2.59209,2.39365 0.96738,1.5627 0.96738,3.62148 v 0.21084 q 0,1.5875 -0.5581,2.90215 -0.55811,1.30225 -1.53789,2.18281 -0.97979,0.86817 -2.30684,1.35186 -1.32705,0.47129 -2.86494,0.47129 -2.05879,0 -3.6959,-0.78135 -1.63711,-0.79375 -2.60449,-2.34404 -0.96738,-1.5627 -0.96738,-3.65869 z m 4.65088,-0.12403 q 0,1.72393 0.66972,2.6293 0.66973,0.89297 1.97198,0.89297 1.26504,0 1.93476,-0.90537 0.68213,-0.90537 0.68213,-2.56729 v -0.21084 q 0,-1.68672 -0.66973,-2.57968 -0.65732,-0.89297 -1.94716,-0.89297 -1.27745,0 -1.95957,0.88056 -0.68213,0.86817 -0.68213,2.54248 z"
         inkscape:connector-curvature="0" />
    </g>
  </g>
</svg>
