<svg xmlns="http://www.w3.org/2000/svg" xmlns:xlink="http://www.w3.org/1999/xlink" width="203" height="26">
    <defs>
        <path id="a" d="M0 26h204V0H0z"/>
    </defs>
    <g fill="none" fill-rule="evenodd">
        <mask id="b" fill="#fff">
            <use xlink:href="#a"/>
        </mask>
        <path fill="#0F2D5E" d="M.339 22.789l2.382-.492v-11.01H0v-3.36h2.72V5.96c0-1.988.593-3.52 1.776-4.596S7.343-.25 9.484-.25c.417 0 .842.03 1.276.09.434.06.91.145 1.43.253l-.423 3.557a29.089 29.089 0 0 0-.787-.115 6.93 6.93 0 0 0-.888-.049c-.8 0-1.405.213-1.817.64-.411.424-.616 1.036-.616 1.834v1.966h3.634v3.36H7.659v11.01l2.383.492v2.867H.34v-2.867zM17.653 3.65h4.967V0h-4.967v3.65zm-2.398 19.434l2.398-.5V11.4L15 10.9V7.967h7.62v14.617l2.38.5V26h-9.745v-2.916zm11.987.058l2.261-.49V11.69L27 11.201V8.327h6.898l.21 2.532c.582-.904 1.298-1.607 2.15-2.107C37.107 8.25 38.06 8 39.115 8c1.766 0 3.145.56 4.137 1.682.99 1.123 1.486 2.881 1.486 5.276v7.694l2.261.49V26h-9.015v-2.858l2.02-.49v-7.678c0-1.185-.237-2.026-.711-2.523-.474-.495-1.19-.743-2.148-.743-.625 0-1.186.127-1.68.384-.496.256-.91.617-1.244 1.086v9.474l1.906.49V26h-8.886v-2.858zm22 0l2.262-.49V11.69L49 11.201V8.327h6.898l.21 2.532c.582-.904 1.298-1.607 2.15-2.107C59.107 8.25 60.06 8 61.115 8c1.766 0 3.145.56 4.137 1.682.99 1.123 1.486 2.881 1.486 5.276v7.694l2.261.49V26h-9.015v-2.858l2.02-.49v-7.678c0-1.185-.237-2.026-.711-2.523-.474-.495-1.19-.743-2.148-.743-.625 0-1.186.127-1.68.384-.496.256-.91.617-1.244 1.086v9.474l1.906.49V26h-8.886v-2.858zM70 2.934V0h7.21v15.068h1.048l2.71-3.95-1.533-.218V7.967h8.582V10.9l-2.066.484-3.145 4.467 4.404 6.85 1.79.383V26h-8.064v-2.916l.968-.167-2.678-4.467H77.21v4.134l2.032.5V26h-9v-2.916l2.274-.5V3.434zm25.862 14.235c0 1.58.288 2.85.865 3.806s1.51 1.435 2.798 1.435c1.254 0 2.173-.482 2.756-1.443.583-.96.874-2.228.874-3.798v-.338c0-1.539-.294-2.794-.882-3.766-.59-.972-1.516-1.458-2.78-1.458-1.267 0-2.189.486-2.766 1.458s-.865 2.227-.865 3.766v.338zM91 16.83c0-2.585.752-4.704 2.256-6.355C94.76 8.825 96.84 8 99.492 8c2.664 0 4.748.823 6.253 2.469 1.503 1.646 2.255 3.766 2.255 6.362v.338c0 2.606-.752 4.73-2.255 6.37C104.24 25.18 102.167 26 99.525 26c-2.675 0-4.765-.82-6.269-2.46C91.752 21.898 91 19.774 91 17.168v-.338zm24.714.421c0 1.557.256 2.782.767 3.675.51.895 1.348 1.34 2.51 1.34.69 0 1.286-.142 1.793-.427.505-.285.92-.696 1.243-1.234v-7.548c-.323-.569-.736-1.01-1.236-1.322-.5-.313-1.09-.47-1.769-.47-1.15 0-1.99.521-2.517 1.563-.528 1.041-.791 2.4-.791 4.078v.345zm6.586 6.232c-.548.823-1.196 1.447-1.945 1.876-.747.427-1.6.641-2.558.641-2.153 0-3.824-.8-5.013-2.402-1.19-1.6-1.784-3.716-1.784-6.347v-.345c0-2.806.598-5.07 1.792-6.791 1.195-1.722 2.873-2.583 5.037-2.583.872 0 1.656.195 2.357.585.7.388 1.311.94 1.84 1.653V3.388l-2.518-.493V0h7.232v22.283l2.26.493v2.878h-6.345l-.355-2.171zm15.928-11.876c-.91 0-1.63.331-2.158.994-.529.663-.855 1.533-.978 2.612l.051.08h6.035v-.416c0-.994-.244-1.788-.732-2.38-.49-.593-1.23-.89-2.218-.89M138.667 26c-2.63 0-4.732-.802-6.306-2.404-1.573-1.603-2.361-3.639-2.361-6.107v-.641c0-2.575.745-4.696 2.235-6.364 1.49-1.666 3.486-2.494 5.993-2.484 2.461 0 4.373.706 5.732 2.116 1.36 1.41 2.04 3.318 2.04 5.722v2.549h-10.89l-.034.096c.09 1.142.491 2.083 1.204 2.82.714.738 1.684 1.107 2.909 1.107 1.09 0 1.995-.106 2.715-.314.719-.207 1.506-.536 2.36-.986l1.331 2.886c-.752.567-1.728 1.042-2.925 1.426-1.196.385-2.532.578-4.003.578m25.574-2.858l2.262-.49V11.69L164 11.2V8.327h6.898l.21 2.532c.582-.904 1.296-1.607 2.147-2.107.851-.502 1.805-.752 2.861-.752 1.765 0 3.144.56 4.136 1.682.99 1.123 1.485 2.881 1.485 5.276v7.694l2.263.49V26h-9.016v-2.858l2.02-.49v-7.678c0-1.185-.237-2.026-.711-2.523-.474-.495-1.19-.743-2.148-.743-.625 0-1.185.127-1.68.384-.496.256-.91.617-1.245 1.086v9.474l1.908.49V26h-8.887v-2.858zm26.621-5.973c0 1.58.289 2.85.866 3.806s1.51 1.435 2.798 1.435c1.253 0 2.172-.482 2.755-1.443.582-.96.874-2.228.874-3.798v-.338c0-1.539-.295-2.794-.883-3.766-.589-.972-1.514-1.458-2.78-1.458-1.265 0-2.187.486-2.764 1.458s-.866 2.227-.866 3.766v.338zM186 16.83c0-2.585.752-4.704 2.256-6.355C189.761 8.825 191.84 8 194.492 8c2.664 0 4.747.823 6.253 2.469 1.503 1.646 2.255 3.766 2.255 6.362v.338c0 2.606-.752 4.73-2.255 6.37-1.506 1.641-3.577 2.461-6.22 2.461-2.675 0-4.764-.82-6.269-2.46-1.504-1.641-2.256-3.765-2.256-6.371v-.338z" mask="url(#b)"/>
        <path fill="#99EEB2" d="M151 18.462c0-1.904 1.585-3.462 3.481-3.462 1.933 0 3.519 1.558 3.519 3.462 0 1.945-1.586 3.538-3.519 3.538-1.896 0-3.481-1.593-3.481-3.538" mask="url(#b)"/>
    </g>
</svg>