<svg xmlns="http://www.w3.org/2000/svg" viewBox="0 0 16 8">
    <g fill="#fff" fill-rule="evenodd" stroke-width=".34" font-family="OpenSans-Semibold,'Open Sans'"
       font-size="5.433" font-weight="500">
        <path d="m 53.06485,124.63766 h -0.559767 l -0.387327,-1.10097 h -1.708484 l -0.387327,1.10097 h -0.533238 l 1.437885,-3.95021 h 0.700373 z m -1.108923,-1.55196 -0.692413,-1.93929 -0.695066,1.93929 z"
              transform="matrix(.98755 0 0 1.0126 -48.873 -118.209)"/>
        <path d="m 58.479432,124.63766 h -0.839651 l -0.580991,-1.65145 h -2.562725 l -0.580991,1.65145 h -0.799857 l 2.156828,-5.92531 h 1.050559 z m -1.663384,-2.32794 -1.03862,-2.90894 -1.0426,2.90894 z"
              font-size="8.15" transform="matrix(.98755 0 0 1.0126 -48.873 -118.209)"/>
        <path d="m 65.690399,124.63766 h -1.119534 l -0.774654,-2.20193 h -3.416967 l -0.774654,2.20193 h -1.066476 l 2.87577,-7.90041 h 1.400745 z m -2.217845,-3.10392 -1.384827,-3.87858 -1.390132,3.87858 z"
              font-size="10.866" transform="matrix(.98755 0 0 1.0126 -48.873 -118.209)"/>
    </g>
</svg>
