<svg xmlns="http://www.w3.org/2000/svg" width="150" height="11" viewBox="0 0 150 11">
  <g fill="#fff">
    <path d="M23.242 1.732h2.401c2.83 0 4.203 1.646 4.203 3.985v.086c0 2.339-1.373 4.071-4.203 4.071h-2.401zm2.401 6.93c1.801 0 2.659-1.04 2.659-2.859v-.086c0-1.733-.772-2.772-2.659-2.772h-.857V8.66zM31.218 2.079a.773.773 0 1 1 1.544 0c0 .433-.343.78-.772.78-.43 0-.772-.26-.772-.78zm.171 1.819h1.373v5.976h-1.373zM34.477 3.898h1.372v1.126c.343-.78.943-1.213 1.887-1.213v1.3c-1.2 0-1.887.432-1.887 1.645v3.118h-1.372zM38.593 6.93v-.087c0-1.82 1.287-3.032 2.916-3.032 1.458 0 2.745.866 2.745 3.032v.433h-4.288c.085 1.126.6 1.732 1.63 1.732.857 0 1.286-.347 1.371-.866h1.287c-.172 1.212-1.2 1.905-2.659 1.905-1.8-.086-3.002-1.299-3.002-3.118zm4.289-.694c-.086-1.04-.6-1.472-1.458-1.472s-1.373.52-1.544 1.472zM45.712 1.126h1.372v5.37l2.144-2.598h1.458L48.37 6.583l2.488 3.204h-1.544l-2.23-2.858v2.945h-1.372zM52.316 8.142V4.85h-.772V3.811h.772V2.598h1.372v1.3h1.286v1.039h-1.286v3.118c0 .52.257.78.686.78.257 0 .515 0 .686-.087v1.126c-.171.087-.515.173-.943.173-1.201-.173-1.801-.78-1.801-1.905zM55.918 6.93v-.087c0-1.82 1.286-3.032 3.001-3.032 1.716 0 3.002 1.213 3.002 3.032v.086c0 1.819-1.286 3.032-3.002 3.032-1.715 0-3.001-1.213-3.001-3.032zm4.63-.087c0-1.3-.6-2.08-1.629-2.08s-1.63.78-1.63 1.993v.087c0 1.212.601 1.992 1.63 1.992 1.03 0 1.63-.693 1.63-1.992zM63.293 3.898h1.373v1.126c.343-.78.943-1.213 1.886-1.213v1.3c-1.2 0-1.886.432-1.886 1.645v3.118h-1.373zM67.41 8.142c0-1.386 1.286-1.906 3.002-1.906h.772V5.89c0-.78-.258-1.213-1.03-1.213-.686 0-1.029.347-1.115.953h-1.286c.086-1.386 1.2-1.992 2.487-1.992 1.287 0 2.316.52 2.316 2.165v3.898h-1.372v-.693c-.344.52-.858.866-1.801.866-1.03.087-1.973-.433-1.973-1.732zm3.774-.433v-.607h-.687c-1.029 0-1.715.26-1.715.953 0 .52.257.866.944.866.857 0 1.458-.433 1.458-1.212zM74.357 8.142V4.85h-.772V3.811h.772V2.598h1.372v1.3h1.286v1.039H75.73v3.118c0 .52.257.78.686.78.257 0 .515 0 .686-.087v1.126c-.171.087-.514.173-.943.173-1.115-.173-1.801-.78-1.801-1.905zM77.959 6.93v-.087c0-1.82 1.286-3.032 2.916-3.032 1.458 0 2.744.866 2.744 3.032v.433h-4.288c.086 1.126.6 1.732 1.63 1.732.857 0 1.286-.347 1.372-.866h1.286c-.171 1.212-1.2 1.905-2.658 1.905-1.716-.086-3.002-1.299-3.002-3.118zm4.374-.694c-.086-1.04-.6-1.472-1.458-1.472s-1.372.52-1.544 1.472zM85.249 8.142V4.85h-.772V3.811h.772V2.598h1.372v1.3h1.286v1.039h-1.286v3.118c0 .52.257.78.686.78.257 0 .515 0 .686-.087v1.126c-.171.087-.514.173-.943.173-1.2-.173-1.801-.78-1.801-1.905zM92.539 4.937h-.772v-1.04h.772v-.779c0-1.3.686-1.992 1.972-1.992.343 0 .515 0 .772.087v1.039c-.172-.087-.343-.087-.6-.087-.515 0-.772.347-.772.866v.867h1.372v1.039h-1.372v4.937h-1.372zM95.97 6.93v-.087c0-1.82 1.286-3.032 3-3.032 1.716 0 3.003 1.213 3.003 3.032v.086c0 1.819-1.287 3.032-3.002 3.032-1.715 0-3.002-1.213-3.002-3.032zm4.63-.087c0-1.3-.6-2.08-1.63-2.08-1.028 0-1.629.78-1.629 1.993v.087c0 1.212.6 1.992 1.63 1.992 1.029 0 1.63-.693 1.63-1.992zM103.345 3.898h1.372v1.126c.343-.78.943-1.213 1.887-1.213v1.3c-1.2 0-1.887.432-1.887 1.645v3.118h-1.372zM110.549 6.93v-.087c0-1.82 1.286-3.032 2.916-3.032 1.458 0 2.744.866 2.744 3.032v.433h-4.288c.086 1.126.6 1.732 1.63 1.732.857 0 1.286-.347 1.372-.866h1.286c-.171 1.212-1.2 1.905-2.658 1.905-1.716-.086-3.002-1.299-3.002-3.118zm4.374-.694c-.086-1.04-.6-1.472-1.458-1.472s-1.372.52-1.544 1.472zM117.667 6.063h2.659v1.126h-2.659zM121.955 1.126h1.373V4.85c.257-.606.943-1.039 1.886-1.039 1.201 0 1.973.693 1.973 2.339v3.724h-1.372V6.236c0-.866-.343-1.299-1.2-1.299-.773 0-1.373.52-1.373 1.386v3.464h-1.287zM128.56 6.93v-.087c0-1.82 1.286-3.032 2.915-3.032 1.458 0 2.745.866 2.745 3.032v.433h-4.289c.086 1.126.6 1.732 1.63 1.732.858 0 1.286-.347 1.372-.866h1.287c-.172 1.212-1.201 1.905-2.66 1.905-1.714-.086-3-1.299-3-3.118zm4.373-.694c-.086-1.04-.6-1.472-1.458-1.472s-1.372.52-1.544 1.472zM135.763 1.126h1.373v8.661h-1.373zM138.508 7.969h1.286c.086.606.343.952 1.2.952.773 0 1.03-.26 1.03-.78 0-.519-.429-.692-1.286-.779-1.544-.26-2.145-.693-2.145-1.819 0-1.212 1.115-1.819 2.23-1.819 1.201 0 2.144.433 2.316 1.82h-1.287c-.085-.52-.428-.78-1.029-.78-.6 0-.943.26-.943.693 0 .433.257.606 1.2.78 1.373.172 2.23.519 2.23 1.818 0 1.213-.857 1.906-2.315 1.906-1.544 0-2.487-.78-2.487-1.992zM144.34 6.93v-.087c0-1.82 1.286-3.032 2.916-3.032 1.458 0 2.744.866 2.744 3.032v.433h-4.288c.086 1.126.6 1.732 1.63 1.732.857 0 1.286-.347 1.372-.866H150c-.172 1.212-1.2 1.905-2.659 1.905-1.8-.086-3.001-1.299-3.001-3.118zm4.288-.694c-.086-1.04-.6-1.472-1.458-1.472s-1.372.52-1.544 1.472z"/>
    <g transform="matrix(.85763 0 0 .86614 -6.69 -6.93)">
      <path d="M21 17.6h3.1v3.1H21zM21 12.8h3.1v3.1H21zM15.5 12.8h3.1v3.1h-3.1zM25.8 12.8h3.1v3.1h-3.1zM21 8h3.1v3.1H21z"/>
      <circle cx="27.3" cy="19.1" r="1.6"/>
      <circle cx="13.6" cy="19.1" r="1.6"/>
      <circle cx="27.3" cy="9.6" r="1.6"/>
      <circle cx="9.4" cy="9.6" r="1.6"/>
    </g>
  </g>
</svg>
